#!OML:ASF I:\golf\golf\golf 2\Subject 1\2002-09-07\Subject1.ASF
:FULLY-SPECIFIED
:DEGREES
39
root -4.06507 18.1106 -7.53748 7.04583 6.12142 -5.65802
lowerback -5.03418 0.361301 -0.638123
upperback -0.804339 0.424251 4.50311
thorax 1.95688 0.198667 5.05013
lowerneck -20.1721 -2.08776 -0.783574
upperneck 20.8845 -1.87836 -3.1082
head 9.95827 -1.30452 -1.23337
rclavicle 4.34841e-015 7.55382e-015
rhumerus -26.6597 -12.2682 -77.6068
rradius 25.7225
rwrist -10.1819
rhand -21.7775 12.8277
rfingers 7.12502
rthumb 4.62366 -17.1018
lclavicle 4.34841e-015 7.55382e-015
lhumerus -30.5403 12.2578 81.6486
lradius 23.2302
lwrist 1.25408
lhand -10.827 33.4806
lfingers 7.12502
lthumb 15.1871 62.9032
rfemur -10.1256 1.31879 26.2909
rtibia 21.4639
rfoot -13.2333 -7.34507
rtoes 5.37341
lfemur -11.9245 1.54888 -9.85272
ltibia 26.2178
lfoot -14.6537 4.447
ltoes -11.7607
40
root -4.05942 18.1115 -7.53652 7.0481 6.13771 -5.62813
lowerback -4.96771 0.389001 -0.634498
upperback -0.855373 0.465125 4.45502
thorax 1.86363 0.221331 4.99855
lowerneck -19.9612 -2.07214 -0.683521
upperneck 21.0061 -1.85065 -3.26274
head 9.96046 -1.30187 -1.29909
rclavicle 7.65321e-015 1.74931e-014
rhumerus -26.7727 -12.307 -77.6426
rradius 25.7424
rwrist -9.9747
rhand -22.0399 12.7872
rfingers 7.12502
rthumb 4.37026 -17.1477
lclavicle 7.65321e-015 1.74931e-014
lhumerus -30.6579 12.4697 81.4584
lradius 23.0063
lwrist 1.01401
lhand -10.789 33.1246
lfingers 7.12502
lthumb 15.2237 62.5445
rfemur -10.1054 1.51254 26.2429
rtibia 21.4509
rfoot -13.2208 -7.53744
rtoes 5.75921
lfemur -12.0242 1.76684 -9.95495
ltibia 26.3855
lfoot -14.7329 4.45455
ltoes -11.4299
41
root -4.05225 18.1088 -7.53454 7.03974 6.1623 -5.52607
lowerback -4.93519 0.420751 -0.685518
upperback -0.854217 0.512853 4.34648
thorax 1.84275 0.245403 4.91614
lowerneck -19.9309 -2.03537 -0.529784
upperneck 21.2902 -1.81755 -3.35812
head 10.054 -1.28699 -1.35782
rclavicle 1.70706e-014 4.73108e-014
rhumerus -26.824 -12.3396 -77.7789
rradius 25.6704
rwrist -9.58186
rhand -22.4484 12.7995
rfingers 7.12502
rthumb 3.97577 -17.1432
lclavicle 1.70706e-014 4.73108e-014
lhumerus -30.6915 12.3568 81.3306
lradius 22.8726
lwrist 1.03901
lhand -10.7338 33.0981
lfingers 7.12502
lthumb 15.2769 62.5139
rfemur -10.0691 1.61341 26.1049
rtibia 21.4571
rfoot -13.3089 -7.59419
rtoes 6.71658
lfemur -12.1059 1.97192 -10.1506
ltibia 26.5483
lfoot -14.7292 4.58018
ltoes -12.6788
42
root -4.04357 18.1055 -7.5373 7.07705 6.19439 -5.51703
lowerback -4.92484 0.46772 -0.616913
upperback -0.867972 0.574337 4.26095
thorax 1.81878 0.277283 4.79076
lowerneck -19.9621 -1.9971 -0.381587
upperneck 21.6212 -1.76989 -3.48575
head 10.1763 -1.2702 -1.42708
rclavicle -1.56791e-014 -2.98177e-014
rhumerus -26.8874 -12.3729 -77.8773
rradius 25.6472
rwrist -9.34898
rhand -22.7482 12.8676
rfingers 7.12502
rthumb 3.68627 -17.0803
lclavicle -1.56791e-014 -2.98177e-014
lhumerus -30.7259 12.2577 81.2046
lradius 22.762
lwrist 1.05045
lhand -10.7429 33.2769
lfingers 7.12502
lthumb 15.2681 62.6934
rfemur -10.1226 1.57549 26.0631
rtibia 21.4678
rfoot -13.3095 -7.56871
rtoes 6.72644
lfemur -12.2768 2.23725 -10.2499
ltibia 26.7232
lfoot -14.8173 4.64513
ltoes -13.1561
43
root -4.03157 18.1071 -7.54205 7.14632 6.22135 -5.60566
lowerback -4.9297 0.509167 -0.479334
upperback -0.895238 0.623292 4.27161
thorax 1.79048 0.303353 4.72637
lowerneck -19.9136 -1.95109 -0.346004
upperneck 21.8127 -1.67467 -3.63289
head 10.2367 -1.24211 -1.47429
rclavicle -1.99033e-014 -4.01545e-014
rhumerus -26.9279 -12.3992 -77.8246
rradius 25.6813
rwrist -9.32271
rhand -22.7304 13.001
rfingers 7.12502
rthumb 3.70348 -16.9466
lclavicle -1.99033e-014 -4.01545e-014
lhumerus -30.7656 12.3564 81.1474
lradius 22.6037
lwrist 0.968058
lhand -10.8171 33.3129
lfingers 7.12502
lthumb 15.1967 62.7348
rfemur -10.2418 1.50593 26.1167
rtibia 21.4821
rfoot -13.237 -7.54307
rtoes 6.2014
lfemur -12.5107 2.49755 -10.2519
ltibia 26.9257
lfoot -14.9381 4.62601
ltoes -12.2532
44
root -4.01553 18.1098 -7.54652 7.22436 6.29245 -5.71302
lowerback -4.97832 0.51813 -0.35544
upperback -0.906995 0.626893 4.35034
thorax 1.80576 0.30575 4.73928
lowerneck -19.8342 -1.90894 -0.444723
upperneck 22.0219 -1.55666 -3.72187
head 10.3008 -1.20784 -1.47525
rclavicle -1.20265e-014 1.03368e-014
rhumerus -26.8775 -12.3509 -77.6968
rradius 25.6396
rwrist -9.36898
rhand -22.6083 13.146
rfingers 7.12502
rthumb 3.82138 -16.7995
lclavicle -1.20265e-014 1.03368e-014
lhumerus -30.7937 12.4862 81.2077
lradius 22.4709
lwrist 0.917005
lhand -10.8677 33.362
lfingers 7.12502
lthumb 15.148 62.7876
rfemur -10.3623 1.37973 26.1746
rtibia 21.4638
rfoot -13.2186 -7.43713
rtoes 6.64731
lfemur -12.801 2.6304 -10.2353
ltibia 27.1754
lfoot -14.9248 4.65165
ltoes -11.6622
